<mxfile host="app.diagrams.net" agent="Mozilla/5.0 (Windows NT 10.0; Win64; x64) AppleWebKit/537.36 (KHTML, like Gecko) Chrome/131.0.0.0 Safari/537.36" version="26.0.6">
  <diagram name="Page-1" id="0jXYULb7XNN_6yOyQ7-O">
    <mxGraphModel dx="2594" dy="1983" grid="1" gridSize="10" guides="1" tooltips="1" connect="1" arrows="1" fold="1" page="1" pageScale="1" pageWidth="850" pageHeight="1100" math="0" shadow="0">
      <root>
        <mxCell id="0" />
        <mxCell id="1" parent="0" />
        <mxCell id="fx19zx-SHGDhQ8waikCe-1" value="&lt;div&gt;cpt-rh-ter-car-1&lt;/div&gt;" style="rounded=0;whiteSpace=wrap;html=1;fillColor=#dae8fc;strokeColor=#6c8ebf;" vertex="1" parent="1">
          <mxGeometry x="430" y="250" width="120" height="60" as="geometry" />
        </mxCell>
        <mxCell id="fx19zx-SHGDhQ8waikCe-5" value="&lt;div&gt;jhb-io-ter-car-5&lt;/div&gt;" style="rounded=0;whiteSpace=wrap;html=1;fillColor=#dae8fc;strokeColor=#6c8ebf;" vertex="1" parent="1">
          <mxGeometry x="-530" y="250" width="120" height="60" as="geometry" />
        </mxCell>
        <mxCell id="fx19zx-SHGDhQ8waikCe-6" value="jhb-io-ter-car-6" style="rounded=0;whiteSpace=wrap;html=1;fillColor=#dae8fc;strokeColor=#6c8ebf;" vertex="1" parent="1">
          <mxGeometry x="-390" y="250" width="120" height="60" as="geometry" />
        </mxCell>
        <mxCell id="fx19zx-SHGDhQ8waikCe-7" value="jhb-io-ter-car-7" style="rounded=0;whiteSpace=wrap;html=1;fillColor=#dae8fc;strokeColor=#6c8ebf;" vertex="1" parent="1">
          <mxGeometry x="-250" y="250" width="120" height="60" as="geometry" />
        </mxCell>
        <mxCell id="fx19zx-SHGDhQ8waikCe-8" value="jhb-io-ter-car-8" style="rounded=0;whiteSpace=wrap;html=1;fillColor=#dae8fc;strokeColor=#6c8ebf;" vertex="1" parent="1">
          <mxGeometry x="-110" y="250" width="120" height="60" as="geometry" />
        </mxCell>
        <mxCell id="fx19zx-SHGDhQ8waikCe-9" value="jhb-io-ter-car-9" style="rounded=0;whiteSpace=wrap;html=1;fillColor=#dae8fc;strokeColor=#6c8ebf;" vertex="1" parent="1">
          <mxGeometry x="30" y="250" width="120" height="60" as="geometry" />
        </mxCell>
        <mxCell id="fx19zx-SHGDhQ8waikCe-21" style="rounded=0;orthogonalLoop=1;jettySize=auto;html=1;entryX=0;entryY=0.75;entryDx=0;entryDy=0;strokeColor=default;" edge="1" parent="1" source="fx19zx-SHGDhQ8waikCe-10" target="fx19zx-SHGDhQ8waikCe-15">
          <mxGeometry relative="1" as="geometry" />
        </mxCell>
        <mxCell id="fx19zx-SHGDhQ8waikCe-24" style="edgeStyle=orthogonalEdgeStyle;rounded=0;orthogonalLoop=1;jettySize=auto;html=1;entryX=0;entryY=0.5;entryDx=0;entryDy=0;" edge="1" parent="1" source="fx19zx-SHGDhQ8waikCe-10" target="fx19zx-SHGDhQ8waikCe-14">
          <mxGeometry relative="1" as="geometry" />
        </mxCell>
        <mxCell id="fx19zx-SHGDhQ8waikCe-10" value="jhb-io-ter-ibr-2" style="rounded=0;whiteSpace=wrap;html=1;fillColor=#f8cecc;strokeColor=#b85450;" vertex="1" parent="1">
          <mxGeometry x="-110" y="520" width="120" height="60" as="geometry" />
        </mxCell>
        <mxCell id="fx19zx-SHGDhQ8waikCe-20" style="edgeStyle=orthogonalEdgeStyle;rounded=0;orthogonalLoop=1;jettySize=auto;html=1;entryX=0;entryY=0.5;entryDx=0;entryDy=0;" edge="1" parent="1" source="fx19zx-SHGDhQ8waikCe-11" target="fx19zx-SHGDhQ8waikCe-15">
          <mxGeometry relative="1" as="geometry" />
        </mxCell>
        <mxCell id="fx19zx-SHGDhQ8waikCe-23" style="rounded=0;orthogonalLoop=1;jettySize=auto;html=1;entryX=0;entryY=0.5;entryDx=0;entryDy=0;" edge="1" parent="1" source="fx19zx-SHGDhQ8waikCe-11" target="fx19zx-SHGDhQ8waikCe-14">
          <mxGeometry relative="1" as="geometry" />
        </mxCell>
        <mxCell id="fx19zx-SHGDhQ8waikCe-11" value="jhb-io-ter-ibr-1" style="rounded=0;whiteSpace=wrap;html=1;fillColor=#f8cecc;strokeColor=#b85450;" vertex="1" parent="1">
          <mxGeometry x="-110" y="450" width="120" height="60" as="geometry" />
        </mxCell>
        <mxCell id="fx19zx-SHGDhQ8waikCe-12" value="jhb-io-ter-ibr-3" style="rounded=0;whiteSpace=wrap;html=1;fillColor=#f8cecc;strokeColor=#b85450;" vertex="1" parent="1">
          <mxGeometry x="-330" y="450" width="120" height="60" as="geometry" />
        </mxCell>
        <mxCell id="fx19zx-SHGDhQ8waikCe-13" value="jhb-io-ter-ibr-4" style="rounded=0;whiteSpace=wrap;html=1;fillColor=#f8cecc;strokeColor=#b85450;" vertex="1" parent="1">
          <mxGeometry x="-330" y="530" width="120" height="60" as="geometry" />
        </mxCell>
        <mxCell id="fx19zx-SHGDhQ8waikCe-14" value="cpt-rh-ter-ibr-2" style="rounded=0;whiteSpace=wrap;html=1;fillColor=#f8cecc;strokeColor=#b85450;" vertex="1" parent="1">
          <mxGeometry x="550" y="520" width="120" height="60" as="geometry" />
        </mxCell>
        <mxCell id="fx19zx-SHGDhQ8waikCe-15" value="cpt-rh-ter-ibr-1" style="rounded=0;whiteSpace=wrap;html=1;fillColor=#f8cecc;strokeColor=#b85450;" vertex="1" parent="1">
          <mxGeometry x="550" y="450" width="120" height="60" as="geometry" />
        </mxCell>
        <mxCell id="fx19zx-SHGDhQ8waikCe-16" value="rr" style="rounded=0;whiteSpace=wrap;html=1;fillColor=#fff2cc;strokeColor=#d6b656;" vertex="1" parent="1">
          <mxGeometry x="150" y="700" width="120" height="60" as="geometry" />
        </mxCell>
        <mxCell id="fx19zx-SHGDhQ8waikCe-17" value="rr" style="rounded=0;whiteSpace=wrap;html=1;fillColor=#fff2cc;strokeColor=#d6b656;" vertex="1" parent="1">
          <mxGeometry x="310" y="700" width="120" height="60" as="geometry" />
        </mxCell>
        <mxCell id="fx19zx-SHGDhQ8waikCe-18" value="&lt;div&gt;jhb-io-ter-dcs-1&lt;/div&gt;" style="rounded=0;whiteSpace=wrap;html=1;fillColor=#ffe6cc;strokeColor=#d79b00;" vertex="1" parent="1">
          <mxGeometry x="-210" y="360" width="120" height="60" as="geometry" />
        </mxCell>
        <mxCell id="fx19zx-SHGDhQ8waikCe-19" value="&lt;div&gt;jhb-io-ter-pas&lt;/div&gt;" style="rounded=0;whiteSpace=wrap;html=1;fillColor=#d5e8d4;strokeColor=#82b366;" vertex="1" parent="1">
          <mxGeometry x="-280" y="140" width="200" height="60" as="geometry" />
        </mxCell>
        <mxCell id="fx19zx-SHGDhQ8waikCe-28" style="edgeStyle=orthogonalEdgeStyle;rounded=0;orthogonalLoop=1;jettySize=auto;html=1;exitX=0.5;exitY=1;exitDx=0;exitDy=0;" edge="1" parent="1" source="fx19zx-SHGDhQ8waikCe-16" target="fx19zx-SHGDhQ8waikCe-16">
          <mxGeometry relative="1" as="geometry" />
        </mxCell>
        <mxCell id="fx19zx-SHGDhQ8waikCe-31" value="&lt;div&gt;cpt-rh-ter-pas&lt;/div&gt;" style="rounded=0;whiteSpace=wrap;html=1;fillColor=#d5e8d4;strokeColor=#82b366;" vertex="1" parent="1">
          <mxGeometry x="620" y="120" width="200" height="60" as="geometry" />
        </mxCell>
        <mxCell id="fx19zx-SHGDhQ8waikCe-32" value="cpt-rh-ter-dcs-1" style="rounded=0;whiteSpace=wrap;html=1;fillColor=#ffe6cc;strokeColor=#d79b00;" vertex="1" parent="1">
          <mxGeometry x="640" y="340" width="120" height="60" as="geometry" />
        </mxCell>
        <mxCell id="fx19zx-SHGDhQ8waikCe-33" value="FNO" style="rounded=0;whiteSpace=wrap;html=1;fillColor=#d0cee2;strokeColor=#56517e;" vertex="1" parent="1">
          <mxGeometry x="240" y="-50" width="200" height="60" as="geometry" />
        </mxCell>
        <mxCell id="fx19zx-SHGDhQ8waikCe-36" value="jhb-io-ter-car-10" style="rounded=0;whiteSpace=wrap;html=1;fillColor=#dae8fc;strokeColor=#6c8ebf;" vertex="1" parent="1">
          <mxGeometry x="180" y="250" width="120" height="60" as="geometry" />
        </mxCell>
        <mxCell id="fx19zx-SHGDhQ8waikCe-37" value="&lt;div&gt;cpt-rh-ter-car-2&lt;/div&gt;" style="rounded=0;whiteSpace=wrap;html=1;fillColor=#dae8fc;strokeColor=#6c8ebf;" vertex="1" parent="1">
          <mxGeometry x="560" y="250" width="120" height="60" as="geometry" />
        </mxCell>
        <mxCell id="fx19zx-SHGDhQ8waikCe-38" value="&lt;div&gt;cpt-rh-ter-car-3&lt;/div&gt;" style="rounded=0;whiteSpace=wrap;html=1;fillColor=#dae8fc;strokeColor=#6c8ebf;" vertex="1" parent="1">
          <mxGeometry x="690" y="250" width="120" height="60" as="geometry" />
        </mxCell>
        <mxCell id="fx19zx-SHGDhQ8waikCe-39" value="&lt;div&gt;cpt-rh-ter-car-4&lt;/div&gt;" style="rounded=0;whiteSpace=wrap;html=1;fillColor=#dae8fc;strokeColor=#6c8ebf;" vertex="1" parent="1">
          <mxGeometry x="820" y="250" width="120" height="60" as="geometry" />
        </mxCell>
        <mxCell id="fx19zx-SHGDhQ8waikCe-40" value="&lt;div&gt;jhb-io-ter-fwa-1&lt;/div&gt;" style="rounded=0;whiteSpace=wrap;html=1;fillColor=#fff2cc;strokeColor=#d6b656;" vertex="1" parent="1">
          <mxGeometry x="-40" y="-160" width="120" height="60" as="geometry" />
        </mxCell>
      </root>
    </mxGraphModel>
  </diagram>
</mxfile>
